<mxfile host="Electron" modified="2023-06-09T16:57:05.969Z" agent="Mozilla/5.0 (Macintosh; Intel Mac OS X 10_15_7) AppleWebKit/537.36 (KHTML, like Gecko) draw.io/21.3.7 Chrome/112.0.5615.204 Electron/24.5.0 Safari/537.36" etag="uFFVs-PhlTUPHt8mal6F" version="21.3.7" type="device">
  <diagram name="Page-1" id="-zL_CsrABUQLQ2P21eSQ">
    <mxGraphModel dx="1100" dy="748" grid="1" gridSize="10" guides="1" tooltips="1" connect="1" arrows="1" fold="1" page="1" pageScale="1" pageWidth="850" pageHeight="1100" math="0" shadow="0">
      <root>
        <mxCell id="0" />
        <mxCell id="1" parent="0" />
        <mxCell id="g1pykmN7iVo8uaMkuvSe-6" value="" style="group;align=center;" parent="1" vertex="1" connectable="0">
          <mxGeometry width="770" height="540" as="geometry" />
        </mxCell>
        <mxCell id="g1pykmN7iVo8uaMkuvSe-4" value="" style="rounded=0;whiteSpace=wrap;html=1;opacity=50;" parent="g1pykmN7iVo8uaMkuvSe-6" vertex="1">
          <mxGeometry width="770" height="540" as="geometry" />
        </mxCell>
        <mxCell id="g1pykmN7iVo8uaMkuvSe-5" value="" style="group" parent="g1pykmN7iVo8uaMkuvSe-6" vertex="1" connectable="0">
          <mxGeometry x="320" y="205" width="130" height="130" as="geometry" />
        </mxCell>
        <mxCell id="g1pykmN7iVo8uaMkuvSe-1" value="" style="whiteSpace=wrap;html=1;aspect=fixed;" parent="g1pykmN7iVo8uaMkuvSe-5" vertex="1">
          <mxGeometry width="130" height="130" as="geometry" />
        </mxCell>
        <mxCell id="g1pykmN7iVo8uaMkuvSe-3" value="" style="shape=flexArrow;endArrow=classic;html=1;rounded=0;fillColor=#dae8fc;gradientColor=#7ea6e0;strokeColor=#6c8ebf;" parent="g1pykmN7iVo8uaMkuvSe-5" edge="1">
          <mxGeometry width="50" height="50" relative="1" as="geometry">
            <mxPoint x="16.25" y="64.1875" as="sourcePoint" />
            <mxPoint x="113.75" y="64.1875" as="targetPoint" />
          </mxGeometry>
        </mxCell>
        <mxCell id="KxNhDtq3yGUV-_KfDaN6-1" value="&lt;font face=&quot;Times New Roman&quot; style=&quot;font-size: 30px;&quot;&gt;Drag &quot;&lt;i&gt;Google Voice.app&lt;/i&gt;&quot; onto &quot;&lt;i&gt;Applications&lt;/i&gt;&quot; to install&lt;/font&gt;" style="text;strokeColor=none;align=center;fillColor=none;html=1;verticalAlign=middle;whiteSpace=wrap;rounded=0;" vertex="1" parent="g1pykmN7iVo8uaMkuvSe-6">
          <mxGeometry y="40" width="770" height="80" as="geometry" />
        </mxCell>
      </root>
    </mxGraphModel>
  </diagram>
</mxfile>
